<svg xmlns="http://www.w3.org/2000/svg" width="213.225" height="142.517" viewBox="0 0 213.225 142.517">
  <g id="deal" transform="translate(0.5 -84.8)">
    <g id="Group_15874" data-name="Group 15874" transform="translate(0 85.333)">
      <path id="Path_11006" data-name="Path 11006" d="M210.339,94.975a4.387,4.387,0,0,0-4.046-.531l-36.044,13.109a17.555,17.555,0,0,0-10.017,9.214,17.77,17.77,0,0,0-.863,2.49,163.393,163.393,0,0,1-29.123-11.324c-17.274-8.9-30.47-4.5-41.789,4.129-5.735.113-13.64.791-21.41,1.476-4.957.437-9.641.84-13.439,1.071a17.689,17.689,0,0,0-11.629-15.9L5.933,85.6A4.42,4.42,0,0,0,0,89.754v88.427A4.419,4.419,0,0,0,4.422,182.6H17.336a17.783,17.783,0,0,0,13.906-6.774c1.76,1.338,3.844,2.9,6.029,4.546,5.16,3.882,10.807,8.117,13.286,10.194,16.464,13.782,36.256,28.665,40.2,31.256,3.683,2.418,10.315,4.991,15.358,4.991,1.973,0,6.943,0,10.432-2.949a14.207,14.207,0,0,0,11.079-.246,16.575,16.575,0,0,0,8.2-8.2,17.211,17.211,0,0,0,11.019-1.615,15.073,15.073,0,0,0,7.185-7.232,13.894,13.894,0,0,0,9.659-3.083,14.327,14.327,0,0,0,5.793-13.114l11.215-6.2a17.713,17.713,0,0,0,14.2,7.277H207.8a4.419,4.419,0,0,0,4.422-4.422V98.6A4.422,4.422,0,0,0,210.339,94.975ZM25.617,168.022a8.885,8.885,0,0,1-8.281,5.738H8.843V96.067l30.112,10.95a8.846,8.846,0,0,1,5.259,11.412Zm132.7,28.441c-1.5,1.149-3.6,1.788-4.529.855-.048-.048-.121-.043-.17-.089-.085-.078-.126-.184-.218-.257-3.161-2.5-17.323-16.986-26.075-26.114a4.419,4.419,0,1,0-6.382,6.114c2.054,2.144,18.545,19.319,25.145,25.326a6.106,6.106,0,0,1-3.207,3.6c-2.832,1.421-5.786,1.183-6.891.155-.033-.031-.082-.029-.116-.059-.054-.048-.078-.116-.135-.161-5.3-4.236-18.6-18.372-21.615-21.645a4.422,4.422,0,0,0-6.511,5.985c.145.157,13.182,14.22,20.5,20.752a7.77,7.77,0,0,1-4.067,4.61,5.772,5.772,0,0,1-6.04-.9c-6.349-5.384-19.092-18.947-21.6-21.63a4.42,4.42,0,0,0-6.459,6.036c2.971,3.18,11.753,12.488,18.429,18.791a19.111,19.111,0,0,1-2.272.143c-2.928,0-7.958-1.869-10.5-3.541-3.1-2.038-22.565-16.563-39.374-30.639-2.543-2.133-8.346-6.5-13.657-10.488-2.846-2.137-5.469-4.107-7.4-5.594l16.554-44.151c4.3-.188,10.026-.683,16.089-1.218,3.429-.3,6.862-.6,10.142-.852-5.042,5.176-12.538,14.446-11.55,23.136a12.743,12.743,0,0,0,6.265,9.529c7.224,4.521,20.6.73,27.038-7.193a30.739,30.739,0,0,0,10.034-3.182c5.181,4.87,12.128,10.6,19.426,16.61,12.7,10.466,27.1,22.331,30.911,28.985C162.209,193.078,159.269,195.738,158.319,196.463Zm7.585-14.219c-5.891-7.881-18.661-18.424-31.1-28.678-8.294-6.835-16.127-13.29-21.14-18.3a4.442,4.442,0,0,0-5.212-.773c-4.5,2.414-6.533,3.411-11.619,3.92a4.424,4.424,0,0,0-3.3,2.042c-3.467,5.5-13.1,8.117-16.161,6.209a3.927,3.927,0,0,1-2.167-3.035c-.427-3.761,3.381-10.272,9.7-16.593,15.643-15.643,26.826-18.7,41.295-11.243A171.531,171.531,0,0,0,159.2,128.4a17.727,17.727,0,0,0,.527,1.981L176.9,176.162Zm37.479.359H194.89a8.885,8.885,0,0,1-8.281-5.739l-18.6-49.589a8.848,8.848,0,0,1,5.259-11.416l30.112-10.95V182.6Z" transform="translate(0 -85.333)" fill="#dadde1" stroke="#dadde1" stroke-width="1"/>
    </g>
  </g>
</svg>
