<svg id="dollar" xmlns="http://www.w3.org/2000/svg" width="28.794" height="28.794" viewBox="0 0 28.794 28.794">
  <g id="Group_15173" data-name="Group 15173">
    <g id="Group_15172" data-name="Group 15172">
      <path id="Path_10998" data-name="Path 10998" d="M14.4,0a14.4,14.4,0,1,0,14.4,14.4A14.4,14.4,0,0,0,14.4,0Zm0,26.738A12.341,12.341,0,1,1,26.738,14.4,12.341,12.341,0,0,1,14.4,26.738Z" fill="#006241"/>
    </g>
  </g>
  <g id="Group_15175" data-name="Group 15175" transform="translate(9.255 4.113)">
    <g id="Group_15174" data-name="Group 15174">
      <path id="Path_10999" data-name="Path 10999" d="M159.769,77.521h-2.057a2.057,2.057,0,0,1-2.057-2.057V74.436a2.057,2.057,0,0,1,2.057-2.057h2.057a2.057,2.057,0,0,1,2.057,2.057,1.028,1.028,0,1,0,2.057,0,4.114,4.114,0,0,0-4.114-4.114V69.294a1.028,1.028,0,1,0-2.057,0v1.028a4.114,4.114,0,0,0-4.114,4.114v1.028a4.114,4.114,0,0,0,4.114,4.114h2.057a2.057,2.057,0,0,1,2.057,2.057v1.028a2.057,2.057,0,0,1-2.057,2.057h-2.057a2.057,2.057,0,0,1-2.057-2.057,1.028,1.028,0,1,0-2.057,0,4.114,4.114,0,0,0,4.114,4.114v1.028a1.028,1.028,0,1,0,2.057,0V86.777a4.114,4.114,0,0,0,4.114-4.114V81.635A4.113,4.113,0,0,0,159.769,77.521Z" transform="translate(-153.599 -68.266)" fill="#006241"/>
    </g>
  </g>
</svg>
