<svg xmlns="http://www.w3.org/2000/svg" width="71.518" height="50" viewBox="0 0 71.518 50">
    <g id="euro" transform="translate(0 -75.55)">
        <g id="Group_15961" data-name="Group 15961" transform="translate(0 75.55)">
        <g id="Group_15960" data-name="Group 15960" transform="translate(0 0)">
            <path id="Path_11014" data-name="Path 11014" d="M71.418,102.978c-.256-1.851-2.165-3.332-5.739-4.415a40.651,40.651,0,0,0-10.538-1.481v-15.2a1.33,1.33,0,0,0-.3-.854c-.47-1.652-2.378-2.991-5.682-3.987a42.4,42.4,0,0,0-11.792-1.5,41.158,41.158,0,0,0-11.663,1.5c-2.578.8-5.668,2.279-5.668,4.828a2.622,2.622,0,0,0,.043.47l.157,6.494A17.04,17.04,0,1,0,27.8,118.8a42.354,42.354,0,0,0,9.128,1c.726,3.945,9.271,5.753,17.246,5.753a40.827,40.827,0,0,0,11.678-1.524c2.592-.8,5.668-2.293,5.668-4.842V103.533A1.476,1.476,0,0,0,71.418,102.978ZM26.559,79.765a38.468,38.468,0,0,1,10.823-1.381,39.834,39.834,0,0,1,10.966,1.381c3.09.94,3.76,1.908,3.76,2.108s-.669,1.182-3.774,2.108a40.2,40.2,0,0,1-10.951,1.381,39.1,39.1,0,0,1-10.5-1.282C23.825,83.2,22.971,82.215,22.9,81.9c0-.028,0-.043-.014-.043C22.9,81.659,23.555,80.691,26.559,79.765Zm25.733,5.668v3.646a1.153,1.153,0,0,0-.185.684c0,.185-.669,1.168-3.774,2.108a40.31,40.31,0,0,1-10.966,1.381,40.743,40.743,0,0,1-9.7-1.068c-.043-.014-.071-.014-.114-.028A16.815,16.815,0,0,0,23.1,89.634L23,85.618A15.778,15.778,0,0,0,26.075,86.8a42.092,42.092,0,0,0,11.293,1.381,42.22,42.22,0,0,0,11.777-1.5A15.435,15.435,0,0,0,52.293,85.433ZM26.6,116.066a14.194,14.194,0,1,1-9.556-24.694A14.6,14.6,0,0,1,21.262,92a14.325,14.325,0,0,1,9.712,10.695,14.893,14.893,0,0,1,.285,2.862A14.161,14.161,0,0,1,26.6,116.066Zm3.617.313a17.2,17.2,0,0,0,2.734-4.685c1.21.1,2.492.171,3.8.185v.256l.071,4.828A44.845,44.845,0,0,1,30.219,116.379Zm3.788-12.5c.84.057,1.709.085,2.592.1,0,.028.014.071.014.1l.085,4.942q-1.517-.021-2.948-.128a17.506,17.506,0,0,0,.328-3.332A13.381,13.381,0,0,0,34.007,103.875Zm3.5-2.734h-.128c-1.367,0-2.692-.057-3.916-.142a16.883,16.883,0,0,0-2.549-5.3,51.293,51.293,0,0,0,6.451.413,42.4,42.4,0,0,0,11.792-1.5,18.305,18.305,0,0,0,3.133-1.282v3.774C46.169,97.282,39.846,98.563,37.511,101.141Zm1.908,2.193c.142-.4,1.182-1.324,4.1-2.15a39.1,39.1,0,0,1,10.2-1.21H53.9a39.911,39.911,0,0,1,10.966,1.353c3,.911,3.717,1.823,3.76,2.065v.014c-.014.214-.726,1.2-3.888,2.136A39.6,39.6,0,0,1,53.9,106.88a40.207,40.207,0,0,1-10.339-1.225c-2.72-.769-3.817-1.638-4.087-2.079A1.206,1.206,0,0,0,39.419,103.334Zm29.251,15.85c0,.2-.641,1.182-3.66,2.122a38.091,38.091,0,0,1-10.837,1.4,38.752,38.752,0,0,1-10.809-1.353c-3.019-.926-3.631-1.88-3.631-2.093v-.028l-.071-4.116c3.389,1.723,9.043,2.506,14.227,2.506a42.007,42.007,0,0,0,11.749-1.5,16.6,16.6,0,0,0,3.033-1.253Zm-.128-7.889c0,.2-.655,1.168-3.731,2.108a39.329,39.329,0,0,1-10.923,1.367c-7.818,0-13.116-1.752-14.284-3.133l-.028-1.225-.057-3.261a16.59,16.59,0,0,0,3.247,1.239,42.914,42.914,0,0,0,11.108,1.339,42.626,42.626,0,0,0,11.635-1.453,16.3,16.3,0,0,0,3.147-1.253v3.66h.014C68.67,110.868,68.542,111.081,68.542,111.295Z" transform="translate(0 -75.55)" fill="#fff"/>
        </g>
        </g>
        <g id="Group_15963" data-name="Group 15963" transform="translate(6.143 96.656)">
        <g id="Group_15962" data-name="Group 15962" transform="translate(0 0)">
            <path id="Path_11015" data-name="Path 11015" d="M63.183,231.549a1.3,1.3,0,0,0-1.675-.753v-.013a6.626,6.626,0,0,1-7.065-1.52,4.276,4.276,0,0,1-.922-1.182H60.2a1.3,1.3,0,1,0,0-2.6H52.573a5.254,5.254,0,0,1-.039-1.429h8.338a1.3,1.3,0,0,0,0-2.6H53.3a7.655,7.655,0,0,1,1.13-1.532,6.628,6.628,0,0,1,7.065-1.494,1.3,1.3,0,0,0,.935-2.416,9.227,9.227,0,0,0-9.844,2.091,8.926,8.926,0,0,0-2.143,3.364H48.6a1.3,1.3,0,1,0,0,2.6h1.3a8.749,8.749,0,0,0,.026,1.429H48.6a1.3,1.3,0,0,0,0,2.6h1.987a8.73,8.73,0,0,0,2,3.026,9.221,9.221,0,0,0,9.844,2.1A1.3,1.3,0,0,0,63.183,231.549Z" transform="translate(-47.3 -215.4)" fill="#fff"/>
        </g>
        </g>
    </g>
</svg>