<svg id="fee" xmlns="http://www.w3.org/2000/svg" width="27.229" height="27.496" viewBox="0 0 27.229 27.496">
  <path id="Path_10995" data-name="Path 10995" d="M188.5,187.624a2.329,2.329,0,0,0-3.459-3.11l-.779.779a.734.734,0,0,1-1.038-1.037l1.317-1.317a.8.8,0,0,0-1.128-1.128l-.364.364-.347-.347a.8.8,0,0,0-1.128,1.128l.357.356a2.329,2.329,0,0,0,3.459,3.11l.778-.778a.734.734,0,0,1,1.038,1.037l-1.528,1.528a.8.8,0,1,0,1.128,1.128l.574-.574.347.347a.8.8,0,0,0,1.128-1.128Zm0,0" transform="translate(-171.598 -171.825)" fill="#006241"/>
  <path id="Path_10996" data-name="Path 10996" d="M338.389,82.061a2.393,2.393,0,1,0,3.385,0A2.378,2.378,0,0,0,338.389,82.061Zm2.257,2.257a.8.8,0,1,1,0-1.128A.8.8,0,0,1,340.645,84.318Zm0,0" transform="translate(-319.552 -76.992)" fill="#006241"/>
  <path id="Path_10997" data-name="Path 10997" d="M26.9,1.107a.8.8,0,0,0-.773-.774L15.25,0a.8.8,0,0,0-.591.236L1.233,13.8a4.3,4.3,0,0,0,0,6.029l6.349,6.414a4.207,4.207,0,0,0,5.99,0L27,12.681a.8.8,0,0,0,.23-.585ZM12.438,25.123a2.611,2.611,0,0,1-3.723,0L2.367,18.709a2.7,2.7,0,0,1,0-3.784L15.549,1.608l9.779.3.3,9.9Zm0,0" transform="translate(0.001 -0.002)" fill="#006241"/>
</svg>
