<svg id="money" xmlns="http://www.w3.org/2000/svg" width="33.761" height="29.024" viewBox="0 0 33.761 29.024">
  <g id="Group_15168" data-name="Group 15168" transform="translate(0 0)">
    <g id="Group_15167" data-name="Group 15167">
      <path id="Path_10988" data-name="Path 10988" d="M33.713,45.012h0l-6.374-16a.663.663,0,0,0-.861-.371h0L.618,38.933a.649.649,0,0,0-.265.211A.655.655,0,0,0,0,39.719V56.95a.663.663,0,0,0,.663.663H28.5a.663.663,0,0,0,.663-.663V47.539l4.183-1.666A.663.663,0,0,0,33.713,45.012ZM27.835,56.287H1.325V40.381H27.835ZM11.058,39.059l11.1-4.422a5.273,5.273,0,0,0,3.8,1.638l1.107,2.783Zm18.1,7.056v-6.4a.663.663,0,0,0-.663-.663h-.011l-1.4-3.527a.548.548,0,0,0-.054-.084.655.655,0,0,0-.693-.51,3.963,3.963,0,0,1-3.475-1.5.657.657,0,0,0-.85-.148.745.745,0,0,0-.093.017L8.37,38.7a.655.655,0,0,0-.364.354H3.892l22.461-8.944,5.884,14.776Z" transform="translate(0 -28.588)" fill="#006241"/>
      <path id="Path_10989" data-name="Path 10989" d="M32.473,197.051a3.963,3.963,0,0,1,2.675,2.672.663.663,0,0,0,.635.473.282.282,0,0,1,.193,0H51.882a.565.565,0,0,0,.081-.017.617.617,0,0,0,.745-.454v0a3.962,3.962,0,0,1,2.675-2.675.654.654,0,0,0,.455-.729.668.668,0,0,0,.019-.1v-5.3a.6.6,0,0,0-.02-.1.653.653,0,0,0-.455-.729,3.959,3.959,0,0,1-2.674-2.676.655.655,0,0,0-.734-.455.631.631,0,0,0-.093-.019H35.976a.624.624,0,0,0-.1.02.655.655,0,0,0-.729.455,3.962,3.962,0,0,1-2.675,2.675.654.654,0,0,0-.455.729.669.669,0,0,0-.019.1v5.3a.611.611,0,0,0,.019.092A.656.656,0,0,0,32.473,197.051Zm.852-5.861a5.259,5.259,0,0,0,2.92-2.92H51.612a5.26,5.26,0,0,0,2.921,2.92v4.764a5.265,5.265,0,0,0-2.92,2.92H36.245a5.265,5.265,0,0,0-2.92-2.92Z" transform="translate(-29.349 -173.827)" fill="#006241"/>
      <path id="Path_10990" data-name="Path 10990" d="M131.976,226.9A3.976,3.976,0,1,0,128,222.921,3.976,3.976,0,0,0,131.976,226.9Zm0-6.627a2.651,2.651,0,1,1-2.651,2.651A2.651,2.651,0,0,1,131.976,220.27Z" transform="translate(-117.396 -203.176)" fill="#006241"/>
      <path id="Path_10991" data-name="Path 10991" d="M76.994,256.933a.994.994,0,1,0-.994-.994A.994.994,0,0,0,76.994,256.933Zm0-1.325a.331.331,0,1,1-.331.331A.331.331,0,0,1,76.994,255.608Z" transform="translate(-69.704 -236.193)" fill="#006241"/>
      <path id="Path_10992" data-name="Path 10992" d="M252.994,256.933a.994.994,0,1,0-.994-.994A.994.994,0,0,0,252.994,256.933Zm0-1.325a.331.331,0,1,1-.331.331A.331.331,0,0,1,252.994,255.608Z" transform="translate(-231.124 -236.193)" fill="#006241"/>
    </g>
  </g>
</svg>
