<svg id="money_1_" data-name="money (1)" xmlns="http://www.w3.org/2000/svg" width="33.831" height="27.752" viewBox="0 0 33.831 27.752">
  <path id="Path_10993" data-name="Path 10993" d="M246.661,386a.661.661,0,1,0,.661.661A.661.661,0,0,0,246.661,386Z" transform="translate(-229.745 -363.534)" fill="#006241"/>
  <path id="Path_10994" data-name="Path 10994" d="M31,47.016A16.418,16.418,0,0,0,25.043,46a16.418,16.418,0,0,0-5.953,1.016,5.865,5.865,0,0,0-2.175,1.391,5.865,5.865,0,0,0-2.175-1.391A16.417,16.417,0,0,0,8.788,46a16.418,16.418,0,0,0-5.953,1.016C1.007,47.752,0,48.8,0,49.965V65.823c0,1.165,1.007,2.213,2.836,2.949a16.071,16.071,0,0,0,5.49,1.01v.006c0,2.26,3.693,3.965,8.59,3.965s8.59-1.7,8.59-3.965v-.006A16.071,16.071,0,0,0,31,68.772c1.829-.736,2.836-1.784,2.836-2.949V49.965C33.831,48.8,32.824,47.752,31,47.016ZM32.51,61.858c0,.564-.769,1.224-2.008,1.723a14.938,14.938,0,0,1-5,.913V61.858s0,0,0-.006A16.069,16.069,0,0,0,31,60.843a7.2,7.2,0,0,0,1.514-.809v1.825ZM16.255,53.929c0,.564-.769,1.224-2.008,1.723a15.3,15.3,0,0,1-5.459.92,15.3,15.3,0,0,1-5.459-.92c-1.238-.5-2.008-1.159-2.008-1.723V52.1a7.2,7.2,0,0,0,1.514.809,16.418,16.418,0,0,0,5.953,1.016,16.418,16.418,0,0,0,5.953-1.016,7.2,7.2,0,0,0,1.514-.809ZM2.836,56.878a16.418,16.418,0,0,0,5.953,1.016,16.418,16.418,0,0,0,5.953-1.016,7.2,7.2,0,0,0,1.514-.809v1.836a16.069,16.069,0,0,0-4.675.805,5.686,5.686,0,0,0-2.807,1.826,15.29,15.29,0,0,1-5.444-.92c-1.238-.5-2.008-1.159-2.008-1.723V56.069A7.2,7.2,0,0,0,2.836,56.878ZM1.322,60.034a7.2,7.2,0,0,0,1.514.809,16.072,16.072,0,0,0,5.49,1.01s0,0,0,.006v2.637a14.937,14.937,0,0,1-5-.913c-1.238-.5-2.008-1.159-2.008-1.723Zm8.4,1.5c.49-1.14,3.316-2.318,7.2-2.318s6.709,1.179,7.2,2.317a.818.818,0,0,1,.07.326c0,.581-.716,1.226-1.916,1.726a14.381,14.381,0,0,1-5.353.917,14.381,14.381,0,0,1-5.353-.917c-1.2-.5-1.916-1.145-1.916-1.726A.816.816,0,0,1,9.717,61.534Zm22.793-3.64c0,.564-.769,1.224-2.008,1.723a15.289,15.289,0,0,1-5.443.92,5.686,5.686,0,0,0-2.808-1.826,16.066,16.066,0,0,0-4.675-.805V56.069a7.2,7.2,0,0,0,1.514.809,16.418,16.418,0,0,0,5.953,1.016A16.418,16.418,0,0,0,31,56.878a7.2,7.2,0,0,0,1.514-.809Zm0-3.965c0,.564-.769,1.224-2.008,1.723a15.3,15.3,0,0,1-5.459.92,15.3,15.3,0,0,1-5.459-.92c-1.238-.5-2.008-1.159-2.008-1.723V52.1a7.2,7.2,0,0,0,1.514.809,16.418,16.418,0,0,0,5.953,1.016A16.418,16.418,0,0,0,31,52.914,7.2,7.2,0,0,0,32.51,52.1ZM19.584,48.241a15.3,15.3,0,0,1,5.459-.92,15.3,15.3,0,0,1,5.459.92c1.238.5,2.008,1.159,2.008,1.723s-.769,1.224-2.008,1.723a15.3,15.3,0,0,1-5.459.92,15.3,15.3,0,0,1-5.459-.92c-1.238-.5-2.008-1.159-2.008-1.723S18.346,48.74,19.584,48.241Zm-16.255,0a15.3,15.3,0,0,1,5.459-.92,15.3,15.3,0,0,1,5.459.92c1.238.5,2.008,1.159,2.008,1.723s-.769,1.224-2.008,1.723a15.3,15.3,0,0,1-5.459.92,15.3,15.3,0,0,1-5.459-.92c-1.238-.5-2.008-1.159-2.008-1.723S2.091,48.74,3.329,48.241Zm0,19.3c-1.238-.5-2.008-1.159-2.008-1.723V64a7.2,7.2,0,0,0,1.514.809,16.071,16.071,0,0,0,5.49,1.01V68.46A14.937,14.937,0,0,1,3.329,67.546Zm18.939,3.968a14.381,14.381,0,0,1-5.353.917,14.381,14.381,0,0,1-5.353-.917c-1.2-.5-1.916-1.145-1.916-1.726V68a5.822,5.822,0,0,0,.5.322,11.573,11.573,0,0,0,4.038,1.27.669.669,0,0,0,.1.007.661.661,0,0,0,.1-1.315c-3.071-.451-4.728-1.605-4.728-2.463V64.031c1.5,1.094,4.136,1.792,7.268,1.792s5.773-.7,7.268-1.792v1.792c0,.858-1.657,2.012-4.728,2.463a.661.661,0,0,0,.1,1.315.669.669,0,0,0,.1-.007,11.572,11.572,0,0,0,4.038-1.27,5.83,5.83,0,0,0,.5-.322v1.786C24.184,70.369,23.468,71.014,22.268,71.514ZM30.5,67.546a14.937,14.937,0,0,1-5,.913V65.817A16.071,16.071,0,0,0,31,64.807,7.2,7.2,0,0,0,32.51,64v1.825C32.51,66.387,31.74,67.047,30.5,67.546Z" transform="translate(0 -46)" fill="#006241"/>
</svg>
