<svg xmlns="http://www.w3.org/2000/svg" width="457.26" height="448.48" viewBox="0 0 457.26 448.48">
  <g id="no_jobs" data-name="no jobs" transform="translate(-734.61 -233)">
    <g id="Group_12" data-name="Group 12" transform="translate(734.61 233)" opacity="0.39">
      <path id="Subtraction_1" data-name="Subtraction 1" d="M300.407,329.672H35.731a14.985,14.985,0,0,1,0-29.97H138.462a15.1,15.1,0,0,1-3-.3,14.989,14.989,0,0,0,0-29.37,15.094,15.094,0,0,1,3-.3H70.13a14.985,14.985,0,0,1,0-29.97h92.308a14.985,14.985,0,1,0,0-29.971H14.826a14.985,14.985,0,0,1,.159-29.97H63.642a14.985,14.985,0,1,0,0-29.97H48.551a14.985,14.985,0,0,1,0-29.97H83.133a14.985,14.985,0,0,0,0-29.971H17.757a14.985,14.985,0,0,1,.159-29.97H110.89a14.985,14.985,0,1,0,0-29.97H91.709a14.985,14.985,0,0,1-10.6-25.581A14.888,14.888,0,0,1,91.709,0H355.446a14.985,14.985,0,0,1,10.6,25.581,14.887,14.887,0,0,1-10.6,4.389h-69.53a14.985,14.985,0,0,0,0,29.97h99.845a14.985,14.985,0,0,1,.159,29.97H313.488a14.985,14.985,0,0,0,0,29.971h46.753a14.985,14.985,0,1,1,0,29.97H326.675a15.1,15.1,0,0,1,3,.3,14.989,14.989,0,0,0,0,29.37,15.1,15.1,0,0,1-3,.3h38.362a14.985,14.985,0,0,1,.159,29.97H313.488a14.985,14.985,0,0,0,0,29.971h9.59a14.985,14.985,0,0,1,0,29.97H248.753a14.985,14.985,0,1,0,0,29.97h51.655a14.985,14.985,0,1,1,0,29.97Z" transform="translate(37.071 59.785)" fill="#f9f9f9"/>
      <rect id="Rectangle_22" data-name="Rectangle 22" width="54.143" height="29.969" rx="14.984" transform="translate(188.769 418.512)" fill="#f9f9f9"/>
      <rect id="Rectangle_24" data-name="Rectangle 24" width="108.286" height="29.969" rx="14.984" transform="translate(231.205 0)" fill="#f9f9f9"/>
      <circle id="Ellipse_7" data-name="Ellipse 7" cx="14.984" cy="14.984" r="14.984" transform="translate(427.291 238.522)" fill="#f9f9f9"/>
      <circle id="Ellipse_9" data-name="Ellipse 9" cx="14.984" cy="14.984" r="14.984" transform="translate(0 119.993)" fill="#f9f9f9"/>
      <g id="Group_6" data-name="Group 6" transform="translate(387.569 168.162) rotate(45)">
        <line id="Line_1" data-name="Line 1" y2="14.358" transform="translate(7.179 0)" fill="none" stroke="#8e9aa0" stroke-linecap="round" stroke-width="2"/>
        <line id="Line_2" data-name="Line 2" y2="14.358" transform="translate(14.358 7.179) rotate(90)" fill="none" stroke="#8e9aa0" stroke-linecap="round" stroke-width="2"/>
      </g>
      <g id="Group_11" data-name="Group 11" transform="translate(413.909 301.324) rotate(45)">
        <line id="Line_1-2" data-name="Line 1" y2="14.358" transform="translate(7.179 0)" fill="none" stroke="#8e9aa0" stroke-linecap="round" stroke-width="2"/>
        <line id="Line_2-2" data-name="Line 2" y2="14.358" transform="translate(14.358 7.179) rotate(90)" fill="none" stroke="#8e9aa0" stroke-linecap="round" stroke-width="2"/>
      </g>
      <g id="Group_7" data-name="Group 7" transform="translate(168.07 49.632) rotate(45)">
        <line id="Line_1-3" data-name="Line 1" y2="14.358" transform="translate(7.179 0)" fill="none" stroke="#8e9aa0" stroke-linecap="round" stroke-width="2"/>
        <line id="Line_2-3" data-name="Line 2" y2="14.358" transform="translate(14.358 7.179) rotate(90)" fill="none" stroke="#8e9aa0" stroke-linecap="round" stroke-width="2"/>
      </g>
      <g id="Group_8" data-name="Group 8" transform="translate(49.541 197.428) rotate(45)">
        <line id="Line_1-4" data-name="Line 1" y2="14.358" transform="translate(7.179 0)" fill="none" stroke="#8e9aa0" stroke-linecap="round" stroke-width="2"/>
        <line id="Line_2-4" data-name="Line 2" y2="14.358" transform="translate(14.358 7.179) rotate(90)" fill="none" stroke="#8e9aa0" stroke-linecap="round" stroke-width="2"/>
      </g>
      <g id="Group_10" data-name="Group 10" transform="translate(288.063 394.977) rotate(45)">
        <line id="Line_1-5" data-name="Line 1" y2="14.358" transform="translate(7.179 0)" fill="none" stroke="#8e9aa0" stroke-linecap="round" stroke-width="2"/>
        <line id="Line_2-5" data-name="Line 2" y2="14.358" transform="translate(14.358 7.179) rotate(90)" fill="none" stroke="#8e9aa0" stroke-linecap="round" stroke-width="2"/>
      </g>
      <g id="Ellipse_2" data-name="Ellipse 2" transform="translate(292.39 28)" fill="none" stroke="#8e9aa0" stroke-width="2">
        <ellipse cx="6" cy="5.5" rx="6" ry="5.5" stroke="none"/>
        <ellipse cx="6" cy="5.5" rx="5" ry="4.5" fill="none"/>
      </g>
      <g id="Ellipse_3" data-name="Ellipse 3" transform="translate(347.39 253)" fill="none" stroke="#8e9aa0" stroke-width="2">
        <ellipse cx="5.5" cy="6" rx="5.5" ry="6" stroke="none"/>
        <ellipse cx="5.5" cy="6" rx="4.5" ry="5" fill="none"/>
      </g>
      <g id="Ellipse_6" data-name="Ellipse 6" transform="translate(64.39 105)" fill="none" stroke="#8e9aa0" stroke-width="2">
        <ellipse cx="5.5" cy="6" rx="5.5" ry="6" stroke="none"/>
        <ellipse cx="5.5" cy="6" rx="4.5" ry="5" fill="none"/>
      </g>
      <g id="Ellipse_4" data-name="Ellipse 4" transform="translate(105.39 354)" fill="none" stroke="#8e9aa0" stroke-width="2">
        <circle cx="6" cy="6" r="6" stroke="none"/>
        <circle cx="6" cy="6" r="5" fill="none"/>
      </g>
    </g>
    <g id="Group_14" data-name="Group 14" transform="translate(861.919 303.633)">
      <g id="Group_13" data-name="Group 13" transform="translate(0 0)">
        <g id="Path_1" data-name="Path 1" transform="translate(0 14.24)" fill="#f3f3f3">
          <path d="M 197.548828125 279.9587707519531 L 7.316609382629395 279.9587707519531 C 3.833609342575073 279.9587707519531 1.000002026557922 277.1251831054688 1.000002026557922 273.6421813964844 L 1.000002026557922 7.316635608673096 C 1.000002026557922 3.833635330200195 3.833609342575073 0.9999924898147583 7.316609382629395 0.9999924898147583 L 197.548828125 0.9999924898147583 C 201.0318298339844 0.9999924898147583 203.8654327392578 3.833635330200195 203.8654327392578 7.316635608673096 L 203.8654327392578 273.6421813964844 C 203.8654327392578 277.1251831054688 201.0318298339844 279.9587707519531 197.548828125 279.9587707519531 Z" stroke="none"/>
          <path d="M 7.316604614257813 2 C 4.385025024414063 2 1.999984741210938 4.385040283203125 1.999984741210938 7.316619873046875 L 1.999984741210938 273.6421508789063 C 1.999984741210938 276.57373046875 4.385025024414063 278.9587707519531 7.316604614257813 278.9587707519531 L 197.5487976074219 278.9587707519531 C 200.4804077148438 278.9587707519531 202.8654479980469 276.57373046875 202.8654479980469 273.6421508789063 L 202.8654479980469 7.316619873046875 C 202.8654479980469 4.385040283203125 200.4804077148438 2 197.5487976074219 2 L 7.316604614257813 2 M 7.316604614257813 0 L 197.5487976074219 0 C 201.5896759033203 0 204.8654479980469 3.2757568359375 204.8654479980469 7.316619873046875 L 204.8654479980469 273.6421508789063 C 204.8654479980469 277.6830139160156 201.5896759033203 280.9587707519531 197.5487976074219 280.9587707519531 L 7.316604614257813 280.9587707519531 C 3.2757568359375 280.9587707519531 -1.52587890625e-05 277.6830139160156 -1.52587890625e-05 273.6421508789063 L -1.52587890625e-05 7.316619873046875 C -1.52587890625e-05 3.2757568359375 3.2757568359375 0 7.316604614257813 0 Z" stroke="none" fill="#dde0e1"/>
        </g>
        <path id="Subtraction_3" data-name="Subtraction 3" d="M191,270H2a2,2,0,0,1-2-2V2A2,2,0,0,1,2,0H61.409V5.739a6.007,6.007,0,0,0,6,6h59.644a6.007,6.007,0,0,0,6-6V0H191a2,2,0,0,1,2,2V196.022a25.405,25.405,0,0,0-13.918,7.184,25.8,25.8,0,0,0,0,36.357A25.408,25.408,0,0,0,193,246.749V268A2,2,0,0,1,191,270Z" transform="translate(6.081 20.367)" fill="#fff"/>
        <g id="Union_1" data-name="Union 1" transform="translate(70.081 0.367)" fill="#fff">
          <path d="M 61.00020217895508 27.99980163574219 L 5.000401496887207 27.99980163574219 C 2.794571399688721 27.99980163574219 1.000001311302185 26.20563125610352 1.000001311302185 24.00030136108398 L 1.000001311302185 10.80000114440918 C 1.000001311302185 8.594170570373535 2.794571399688721 6.799600601196289 5.000401496887207 6.799600601196289 L 22.00050163269043 6.799600601196289 L 23.00050163269043 6.799600601196289 L 23.00050163269043 5.799600601196289 L 23.00050163269043 5.000401020050049 C 23.00050163269043 2.794570922851563 24.7946720123291 1.000000834465027 27.00000190734863 1.000000834465027 L 39.00060272216797 1.000000834465027 C 41.2059326171875 1.000000834465027 43.00010299682617 2.794570922851563 43.00010299682617 5.000401020050049 L 43.00010299682617 5.799600601196289 L 43.00010299682617 6.799600601196289 L 44.00010299682617 6.799600601196289 L 61.00020217895508 6.799600601196289 C 63.20603179931641 6.799600601196289 65.00060272216797 8.594170570373535 65.00060272216797 10.80000114440918 L 65.00060272216797 24.00030136108398 C 65.00060272216797 26.20563125610352 63.20603179931641 27.99980163574219 61.00020217895508 27.99980163574219 Z" stroke="none"/>
          <path d="M 61.00020217895508 26.99980163574219 C 62.65463256835938 26.99980163574219 64.00060272216797 25.65423011779785 64.00060272216797 24.00030136108398 L 64.00060272216797 10.80000114440918 C 64.00060272216797 9.145570755004883 62.65463256835938 7.799600601196289 61.00020217895508 7.799600601196289 L 44.00010299682617 7.799600601196289 L 42.00010299682617 7.799600601196289 L 42.00010299682617 5.799600601196289 L 42.00010299682617 5.000401020050049 C 42.00010299682617 3.345970869064331 40.6545295715332 2.000000715255737 39.00060272216797 2.000000715255737 L 27.00000190734863 2.000000715255737 C 25.34607124328613 2.000000715255737 24.00050163269043 3.345970869064331 24.00050163269043 5.000401020050049 L 24.00050163269043 5.799600601196289 L 24.00050163269043 7.799600601196289 L 22.00050163269043 7.799600601196289 L 5.000401496887207 7.799600601196289 C 3.345971345901489 7.799600601196289 2.000001430511475 9.145570755004883 2.000001430511475 10.80000114440918 L 2.000001430511475 24.00030136108398 C 2.000001430511475 25.65423011779785 3.345971345901489 26.99980163574219 5.000401496887207 26.99980163574219 L 61.00020217895508 26.99980163574219 M 61.00020217895508 28.99980163574219 L 5.000401496887207 28.99980163574219 C 2.238301277160645 28.99980163574219 1.361083945994324e-06 26.76150131225586 1.361083945994324e-06 24.00030136108398 L 1.361083945994324e-06 10.80000114440918 C 1.361083945994324e-06 8.038801193237305 2.238301277160645 5.799600601196289 5.000401496887207 5.799600601196289 L 22.00050163269043 5.799600601196289 L 22.00050163269043 5.000401020050049 C 22.00050163269043 2.238300800323486 24.23880195617676 8.178710686479462e-07 27.00000190734863 8.178710686479462e-07 L 39.00060272216797 8.178710686479462e-07 C 41.76180267333984 8.178710686479462e-07 44.00010299682617 2.238300800323486 44.00010299682617 5.000401020050049 L 44.00010299682617 5.799600601196289 L 61.00020217895508 5.799600601196289 C 63.76140213012695 5.799600601196289 66.00060272216797 8.038801193237305 66.00060272216797 10.80000114440918 L 66.00060272216797 24.00030136108398 C 66.00060272216797 26.76150131225586 63.76140213012695 28.99980163574219 61.00020217895508 28.99980163574219 Z" stroke="none" fill="#dde0e1"/>
        </g>
        <g id="Group_2" data-name="Group 2" transform="translate(44.875 80.311)">
          <g id="Group_1" data-name="Group 1" transform="translate(0 0)">
            <rect id="Rectangle_4" data-name="Rectangle 4" width="19.229" height="19.229" transform="translate(0 0)" fill="#f3f3f3"/>
            <rect id="Rectangle_5" data-name="Rectangle 5" width="91.34" height="7.211" transform="translate(25.239 0)" fill="#f3f3f3"/>
            <rect id="Rectangle_6" data-name="Rectangle 6" width="75.716" height="7.211" transform="translate(25.239 9.615)" fill="#f3f3f3"/>
          </g>
          <g id="Group_1-2" data-name="Group 1" transform="translate(0 36.055)">
            <rect id="Rectangle_4-2" data-name="Rectangle 4" width="19.229" height="19.229" fill="#f3f3f3"/>
            <rect id="Rectangle_5-2" data-name="Rectangle 5" width="91.34" height="7.211" transform="translate(25.239)" fill="#f3f3f3"/>
            <rect id="Rectangle_6-2" data-name="Rectangle 6" width="75.716" height="7.211" transform="translate(25.239 9.615)" fill="#f3f3f3"/>
          </g>
          <g id="Group_1-3" data-name="Group 1" transform="translate(0 72.11)">
            <rect id="Rectangle_4-3" data-name="Rectangle 4" width="19.229" height="19.229" fill="#f3f3f3"/>
            <rect id="Rectangle_5-3" data-name="Rectangle 5" width="91.34" height="7.211" transform="translate(25.239)" fill="#f3f3f3"/>
            <rect id="Rectangle_6-3" data-name="Rectangle 6" width="75.716" height="7.211" transform="translate(25.239 9.615)" fill="#f3f3f3"/>
          </g>
          <g id="Group_1-4" data-name="Group 1" transform="translate(0 108.165)">
            <rect id="Rectangle_4-4" data-name="Rectangle 4" width="19.229" height="19.229" fill="#f3f3f3"/>
            <rect id="Rectangle_5-4" data-name="Rectangle 5" width="91.34" height="7.211" transform="translate(25.239)" fill="#f3f3f3"/>
            <rect id="Rectangle_6-4" data-name="Rectangle 6" width="75.716" height="7.211" transform="translate(25.239 9.615)" fill="#f3f3f3"/>
          </g>
          <g id="Group_1-5" data-name="Group 1" transform="translate(0 144.221)">
            <rect id="Rectangle_4-5" data-name="Rectangle 4" width="19.229" height="19.229" fill="#f3f3f3"/>
            <rect id="Rectangle_5-5" data-name="Rectangle 5" width="91.34" height="7.211" transform="translate(25.239)" fill="#f3f3f3"/>
            <rect id="Rectangle_6-5" data-name="Rectangle 6" width="75.716" height="7.211" transform="translate(25.239 9.615)" fill="#f3f3f3"/>
          </g>
        </g>
      </g>
    </g>
  </g>
</svg>
