<svg id="partnership-handshake" xmlns="http://www.w3.org/2000/svg" width="33.76" height="19.526" viewBox="0 0 33.76 19.526">
  <g id="Group_15154" data-name="Group 15154" transform="translate(16.95 5.389)">
    <path id="Path_10980" data-name="Path 10980" d="M15.5,17.782a2.674,2.674,0,0,1-1.829-.7l-1.407-1.407a.7.7,0,0,1,.985-.985l1.407,1.407a1.476,1.476,0,0,0,1.829,0,1.2,1.2,0,0,0,0-1.829l-4.22-4.22a.7.7,0,0,1,.985-.985l4.22,4.22a2.809,2.809,0,0,1,0,3.8A3.361,3.361,0,0,1,15.5,17.782Z" transform="translate(-12.05 -8.85)" fill="#006241"/>
  </g>
  <g id="Group_15155" data-name="Group 15155" transform="translate(4.167 0.671)">
    <path id="Path_10981" data-name="Path 10981" d="M3.719,9.722a.774.774,0,0,1-.7-.422c-.141-.422,0-.7.422-.985L9.486,5.783a3.457,3.457,0,0,1,3.8.7l.844.844a.7.7,0,1,1-.985.985l-.844-.7a2.2,2.2,0,0,0-2.251-.422L4,9.722H3.719Z" transform="translate(-2.962 -5.496)" fill="#006241"/>
  </g>
  <g id="Group_15156" data-name="Group 15156" transform="translate(12.624 0)">
    <path id="Path_10982" data-name="Path 10982" d="M11.542,12.729a2.963,2.963,0,0,1-1.829-.7,3.032,3.032,0,0,1-.7-2.391,2.139,2.139,0,0,1,1.407-1.829L15.34,5.414a3.616,3.616,0,0,1,2.954-.141l7.315,2.954a.758.758,0,0,1-.563,1.407L17.732,6.68a1.788,1.788,0,0,0-1.688,0L11.12,9.072a.892.892,0,0,0-.7.844,1.187,1.187,0,0,0,.281.985,1.343,1.343,0,0,0,1.407.281l4.361-2.251a.932.932,0,0,1,.985.281.932.932,0,0,1-.281.985l-4.361,2.251a4.107,4.107,0,0,1-1.266.281Z" transform="translate(-8.975 -5.019)" fill="#006241"/>
  </g>
  <g id="Group_15157" data-name="Group 15157" transform="translate(13.715 10.734)">
    <path id="Path_10983" data-name="Path 10983" d="M13.618,18.91a2.268,2.268,0,0,1-1.829-.844L9.961,16.237a.7.7,0,0,1,.985-.985l1.829,1.829a1.475,1.475,0,0,0,1.829,0,1.314,1.314,0,0,0,0-1.829L13.2,13.846a.7.7,0,0,1,.985-.985l1.407,1.407a2.809,2.809,0,0,1,0,3.8A2.777,2.777,0,0,1,13.618,18.91Z" transform="translate(-9.75 -12.65)" fill="#006241"/>
  </g>
  <g id="Group_15158" data-name="Group 15158" transform="translate(4.22 12.633)">
    <path id="Path_10984" data-name="Path 10984" d="M13.269,20.893a2.963,2.963,0,0,1-1.829-.7L8.2,17.235a6.635,6.635,0,0,0-4.5-1.688A.892.892,0,0,1,3,14.7a.664.664,0,0,1,.7-.7,8.137,8.137,0,0,1,5.486,2.11l3.235,2.954a1.479,1.479,0,0,0,1.829,0,1.2,1.2,0,0,0,0-1.829l-1.407-1.407a.7.7,0,0,1,.985-.985l1.407,1.407a2.809,2.809,0,0,1,0,3.8A2.777,2.777,0,0,1,13.269,20.893Z" transform="translate(-3 -14)" fill="#006241"/>
  </g>
  <g id="Group_15159" data-name="Group 15159" transform="translate(21.188 11.297)">
    <path id="Path_10985" data-name="Path 10985" d="M19.335,16.5a3.1,3.1,0,0,1-1.125-.141l-2.673-.844a.667.667,0,0,1,.422-1.266l2.673.844a1.965,1.965,0,0,0,2.11-.422l1.547-1.407a.7.7,0,0,1,.985.985l-1.547,1.407a4.484,4.484,0,0,1-2.391.844Z" transform="translate(-15.063 -13.05)" fill="#006241"/>
  </g>
  <g id="Group_15160" data-name="Group 15160" transform="translate(28.133 1.38)">
    <path id="Path_10986" data-name="Path 10986" d="M24.923,20.067H20.7a.664.664,0,0,1-.7-.7V6.7a.664.664,0,0,1,.7-.7h4.22a.664.664,0,0,1,.7.7v12.66A.664.664,0,0,1,24.923,20.067ZM21.407,18.66H24.22V7.407H21.407Z" transform="translate(-20 -6)" fill="#006241"/>
  </g>
  <g id="Group_15161" data-name="Group 15161" transform="translate(0 1.38)">
    <path id="Path_10987" data-name="Path 10987" d="M4.923,20.067H.7a.664.664,0,0,1-.7-.7V6.7A.664.664,0,0,1,.7,6h4.22a.664.664,0,0,1,.7.7v12.66A.664.664,0,0,1,4.923,20.067ZM1.407,18.66H4.22V7.407H1.407Z" transform="translate(0 -6)" fill="#006241"/>
  </g>
</svg>
