<svg xmlns="http://www.w3.org/2000/svg" width="211.9" height="145.806" viewBox="0 0 211.9 145.806">
  <g id="Group_15731" data-name="Group 15731" transform="translate(0.2 0.2)" opacity="0.594">
    <g id="credit-card" transform="translate(0)">
      <path id="Path_11007" data-name="Path 11007" d="M188.367,80H23.133A23.159,23.159,0,0,0,0,103.133v99.141a23.159,23.159,0,0,0,23.133,23.133H188.367A23.159,23.159,0,0,0,211.5,202.273V103.133A23.159,23.159,0,0,0,188.367,80ZM23.133,93.219H188.367a9.926,9.926,0,0,1,9.914,9.914v13.219H13.219V103.133A9.926,9.926,0,0,1,23.133,93.219ZM188.367,212.187H23.133a9.926,9.926,0,0,1-9.914-9.914v-72.7H198.281v72.7A9.926,9.926,0,0,1,188.367,212.187Z" transform="translate(0 -80)" fill="#c7ccd2" stroke="#c7ccd2" stroke-width="0.4"/>
      <path id="Path_11008" data-name="Path 11008" d="M93.219,323.828H86.609A6.61,6.61,0,0,1,80,317.219v-6.609A6.61,6.61,0,0,1,86.609,304h6.609a6.61,6.61,0,0,1,6.609,6.609v6.609A6.61,6.61,0,0,1,93.219,323.828Z" transform="translate(-46.953 -211.469)" fill="#c7ccd2" stroke="#c7ccd2" stroke-width="0.4"/>
    </g>
  </g>
</svg>
