<svg id="Group_12956" data-name="Group 12956" xmlns="http://www.w3.org/2000/svg" width="57.569" height="62.079" viewBox="0 0 57.569 62.079">
  <g id="Group_12949" data-name="Group 12949" transform="translate(0 15.139)">
    <g id="Group_12948" data-name="Group 12948">
      <path id="Path_3805" data-name="Path 3805" d="M66.3,104.4H22.365a6.817,6.817,0,0,0-6.815,6.815v33.309a6.817,6.817,0,0,0,6.815,6.816H66.3a6.817,6.817,0,0,0,6.815-6.816V111.216A6.817,6.817,0,0,0,66.3,104.4Zm-47.737,7.193a4.039,4.039,0,0,1,3.727-4.162H66.376a4.027,4.027,0,0,1,3.712,4.162v13.413l-17.43,10.223a4.455,4.455,0,0,1-5.22-.45L38.8,127.21a7.49,7.49,0,0,0-9.4-.377l-10.832,7.874ZM70.1,144.162c-.014,2.132-1.6,4.176-3.727,4.176H22.293a4.027,4.027,0,0,1-3.712-4.162v-5.684l12.645-9.237a4.479,4.479,0,0,1,5.612.3l8.643,7.5a7.55,7.55,0,0,0,8.715.827l15.908-9.4Z" transform="translate(-15.55 -104.4)" fill="#006241"/>
    </g>
  </g>
  <g id="Group_12951" data-name="Group 12951" transform="translate(27.349 23.622)">
    <g id="Group_12950" data-name="Group 12950" transform="translate(0)">
      <path id="Path_3806" data-name="Path 3806" d="M210.893,162.9a6.743,6.743,0,1,0,6.743,6.743A6.74,6.74,0,0,0,210.893,162.9Zm0,10.455a3.712,3.712,0,1,1,3.712-3.712A3.719,3.719,0,0,1,210.893,173.355Z" transform="translate(-204.15 -162.9)" fill="#006241"/>
    </g>
  </g>
  <g id="Group_12953" data-name="Group 12953" transform="translate(3.712 7.57)">
    <g id="Group_12952" data-name="Group 12952" transform="translate(0)">
      <path id="Path_3807" data-name="Path 3807" d="M89.787,52.2H42.658a1.508,1.508,0,1,0,0,3.016H89.787a1.508,1.508,0,0,0,0-3.016Z" transform="translate(-41.15 -52.2)" fill="#006241"/>
    </g>
  </g>
  <g id="Group_12955" data-name="Group 12955" transform="translate(7.497)">
    <g id="Group_12954" data-name="Group 12954">
      <path id="Path_3808" data-name="Path 3808" d="M108.3,0H68.758a1.508,1.508,0,1,0,0,3.016H108.3A1.508,1.508,0,1,0,108.3,0Z" transform="translate(-67.25 0)" fill="#006241"/>
    </g>
  </g>
</svg>
